<?xml version="1.0" encoding="utf-8"?>
<!-- Generator: Adobe Illustrator 16.0.0, SVG Export Plug-In . SVG Version: 6.00 Build 0)  -->
<!DOCTYPE svg PUBLIC "-//W3C//DTD SVG 1.1//EN" "http://www.w3.org/Graphics/SVG/1.1/DTD/svg11.dtd">
<svg version="1.1" id="Layer_1" xmlns="http://www.w3.org/2000/svg" xmlns:xlink="http://www.w3.org/1999/xlink" x="0px" y="0px"
	 width="335.537px" height="96.694px" viewBox="0 0 335.537 96.694" enable-background="new 0 0 335.537 96.694"
	 xml:space="preserve">
<path fill="none" d="M10.279,13.643c-0.086-0.171-0.176-0.351-0.268-0.538C10.103,13.292,10.192,13.472,10.279,13.643z"/>
<path fill="none" d="M10.542,14.154c-0.068-0.129-0.14-0.27-0.214-0.415C10.402,13.884,10.474,14.025,10.542,14.154z"/>
<path fill="none" d="M10.777,14.59c-0.051-0.091-0.108-0.198-0.165-0.305C10.669,14.392,10.727,14.499,10.777,14.59z"/>
<path fill="none" d="M7.621,7.999c0.001,0.002,0.002,0.005,0.003,0.007c0,0,1.324,2.944,2.374,5.075
	C9.011,11.078,7.78,8.351,7.621,7.999z"/>
<path fill="none" d="M10.976,14.929c-0.034-0.055-0.076-0.127-0.115-0.195C10.9,14.801,10.942,14.874,10.976,14.929z"/>
<path fill="none" d="M11.063,15.057c0.021,0.031,0.047,0.072,0.065,0.094C11.111,15.128,11.085,15.087,11.063,15.057z"/>
<path fill="none" d="M224.557,8.888l-0.142,0.289l0.043-0.087C224.493,9.019,224.525,8.951,224.557,8.888z"/>
<path fill="none" d="M213.288,89.329l5.841-0.072l-5.864,0.072C213.271,89.329,213.281,89.329,213.288,89.329z"/>
<path fill="none" d="M209.515,89.143c-1.447-0.048,2.497,0.16,2.497,0.16c0.01,0.001,0.022,0.001,0.032,0.001
	C211.108,89.254,208.373,89.106,209.515,89.143z"/>
<path fill="none" d="M209.751,89.151c0.026,0.001,0.047,0.002,0.076,0.003C209.798,89.153,209.778,89.152,209.751,89.151z"/>
<path d="M331.138,66.922l-10.512-23.665c-0.144-0.321-0.382-0.323-0.53-0.006L298.82,88.758c-0.148,0.317,0.017,0.578,0.368,0.578
	h21.391c0.352,0,0.76-0.261,0.908-0.579l9.641-20.672C331.276,67.767,331.281,67.244,331.138,66.922z"/>
<path d="M142.852,51.268l0.626-1.403c0.143-0.32-0.027-0.583-0.378-0.583h-25.264c-0.351,0-0.517-0.261-0.368-0.578l17.058-36.384
	c0.149-0.318,0.391-0.317,0.538,0.002l12.326,26.799c0.147,0.319,0.342,0.303,0.433-0.037l0.576-2.143
	c0.091-0.339,0.046-0.878-0.1-1.197L136.332,9.616c-0.146-0.319-0.144-0.841,0.005-1.159l0.438-0.933
	c0.149-0.318,0.254-0.578,0.234-0.578s-0.324,0-0.675,0h-23.888c-0.351,0-0.693,0-0.759,0s-0.242,0.26-0.391,0.578
	c0,0-38.278,81.552-38.129,81.234c-0.149,0.317,0.017,0.578,0.368,0.578h24.173c0.351,0,0.655,0,0.675,0s0.158-0.261,0.307-0.578
	l17.032-36.329c0.149-0.318,0.559-0.578,0.91-0.578h25.322C142.304,51.851,142.709,51.588,142.852,51.268z"/>
<path d="M195.7,6.946h-29.632c-0.351,0-0.766,0.258-0.921,0.573l-5.064,10.299c-0.155,0.315,0.004,0.583,0.355,0.595l4.395,0.031
	c0.351,0.012,0.516,0.282,0.368,0.601l-32.621,69.714c-0.148,0.317,0.017,0.578,0.368,0.578h24.127c0.351,0,0.761-0.261,0.91-0.578
	l38.083-81.234C196.216,7.206,196.052,6.946,195.7,6.946z"/>
<path d="M28.209,54.647l0.86-1.948c0.142-0.321,0.135-0.844-0.015-1.161L17.423,27.007c-0.076-0.161,0-0.429,0.148-0.43l5.314-0.003
	c0.314,0,0.68-0.232,0.813-0.516l8.719-18.507c0.134-0.284-0.013-0.516-0.327-0.516c0,0-26.398,0.011-26.616,0.007
	c-0.217-0.004-0.272,0.253-0.122,0.57l22.325,47.041C27.828,54.971,28.067,54.968,28.209,54.647z M9.48,15.057
	c0.021,0.031,0.047,0.072,0.065,0.094C9.528,15.128,9.502,15.087,9.48,15.057z M8.428,13.105c0.092,0.187,0.182,0.366,0.268,0.538
	C8.609,13.472,8.52,13.292,8.428,13.105z M8.745,13.739c0.074,0.145,0.146,0.286,0.214,0.415
	C8.891,14.025,8.819,13.884,8.745,13.739z M9.029,14.285c0.057,0.107,0.114,0.213,0.165,0.305
	C9.144,14.499,9.086,14.392,9.029,14.285z M9.278,14.734c0.039,0.068,0.081,0.14,0.115,0.195
	C9.359,14.874,9.317,14.801,9.278,14.734z"/>
<path d="M82.285,7.044H58.326c-0.351,0-0.761,0.26-0.911,0.578L19.23,88.718c-0.149,0.318,0.016,0.578,0.367,0.578H43.72
	c0.351,0,0.761-0.26,0.91-0.578L82.653,7.623C82.802,7.305,82.636,7.044,82.285,7.044z"/>
<g>
	<g>
		<path fill="none" d="M211.7,89.286c-1.118-0.061-3.209-0.176-2.186-0.143C208.318,89.103,210.801,89.239,211.7,89.286
			L211.7,89.286z"/>
		<path d="M250.473,7.524c0.149-0.318,0.103-0.578-0.104-0.578s-0.663,0-1.015,0h-36.386c-0.352,0-0.741,0.269-0.867,0.596
			l-0.738,2.018c-0.062,0.153,0.023,0.279,0.188,0.279c0,0,6.11,0,12.241,0c0.101,0-0.122,0.26-0.271,0.578l-36.773,78.355
			c-0.149,0.318,0.016,0.578,0.367,0.578c0,0,33.719-0.007,35.719-0.007c0.023,0,0.034-0.004,0.057-0.005h0.725
			c0.352,0,0.741-0.269,0.867-0.597l0.738-2.018c0.062-0.152-0.023-0.278-0.188-0.278c0,0-5.685,0-11.588,0
			c0.049-0.068,0.098-0.144,0.135-0.223L250.473,7.524z"/>
	</g>
</g>
<path d="M311.019,51.268l0.627-1.403c0.143-0.32-0.027-0.583-0.379-0.583h-25.264c-0.352,0-0.518-0.261-0.368-0.578l17.058-36.384
	c0.148-0.318,0.391-0.317,0.538,0.002l12.325,26.799c0.147,0.319,0.342,0.303,0.434-0.037l0.576-2.143
	c0.092-0.339,0.047-0.878-0.1-1.197L304.499,9.616c-0.146-0.319-0.145-0.841,0.004-1.159l0.438-0.933
	c0.149-0.318,0.255-0.578,0.234-0.578c-0.02,0-0.324,0-0.675,0h-23.888c-0.352,0-0.693,0-0.759,0s-0.242,0.26-0.392,0.578
	c0,0-38.277,81.552-38.129,81.234c-0.148,0.317,0.018,0.578,0.368,0.578h24.173c0.352,0,0.654,0,0.675,0s0.158-0.261,0.308-0.578
	l17.031-36.329c0.149-0.318,0.559-0.578,0.91-0.578h25.322C310.472,51.851,310.876,51.588,311.019,51.268z"/>
</svg>
