<svg xmlns="http://www.w3.org/2000/svg" width="336" height="97" viewBox="0 0 335.5 96.7"><style>path{fill:rgba(255,255,255,1);}</style><path d="M298.8 88.8c-0.1 0.3 0 0.6 0.4 0.6h21.4c0.4 0 0.8-0.3 0.9-0.6l9.6-20.7c0.1-0.3 0.2-0.8 0-1.2l-10.5-23.7c-0.1-0.3-0.4-0.3-0.5 0L298.8 88.8z"/><path d="M186.7 88.8c-0.1 0.3 0 0.6 0.4 0.6h24.1c0.4 0 0.9 0 1.3 0h12.2c0.4 0 0.8-0.1 0.9-0.2 0.2-0.1 0-0.2-0.3-0.2l-13.1 0c-0.4 0-0.5-0.3-0.4-0.6l37.9-80.8c0.1-0.3 0-0.6-0.4-0.6h-36.4c-0.4 0-0.7 0.3-0.9 0.6l-0.2 0.6c-0.1 0.3 0.1 0.6 0.4 0.6L223.9 8.3c0.4 0 0.6 0.2 0.5 0.4s-0.3 0.7-0.4 1L186.7 88.8z"/><path d="M73.4 88.8c-0.1 0.3 0 0.6 0.4 0.6h24.1c0.4 0 0.8-0.3 0.9-0.6l38.1-81.2c0.1-0.3 0-0.6-0.4-0.6h-24.1c-0.4 0-0.8 0.3-0.9 0.6L73.4 88.8z"/><path d="M143 51.3c-0.1 0.3-0.5 0.6-0.9 0.6h-34.3c-0.4 0-0.8-0.3-0.9-0.6l-0.6-1.4c-0.1-0.3 0-0.6 0.4-0.6h36.6c0.4 0 0.5 0.3 0.4 0.6L143 51.3z"/><path d="M309.6 51.3c-0.1 0.3-0.5 0.6-0.9 0.6h-34.3c-0.4 0-0.8-0.3-0.9-0.6l-0.6-1.4c-0.1-0.3 0-0.6 0.4-0.6h36.6c0.4 0 0.5 0.3 0.4 0.6L309.6 51.3z"/><path d="M316 35.7c0.1 0.3 0.2 0.9 0.1 1.2l-0.6 2.1c-0.1 0.3-0.3 0.4-0.4 0L301.3 9.2c-0.1-0.3-0.1-0.8 0.2-1l0.8-0.8c0.3-0.2 0.6-0.2 0.7 0.1L316 35.7z"/><path d="M241 88.8c-0.1 0.3 0 0.6 0.4 0.6h24.1c0.4 0 0.8-0.3 0.9-0.6l38.1-81.2c0.1-0.3 0-0.6-0.4-0.6h-24.1c-0.4 0-0.8 0.3-0.9 0.6L241 88.8z"/><path d="M228.7 8.2c0.2 0 0.4 0.1 0.5 0.3 0 0 0.1 0.2-3.2 0.1 -5.6-0.2 10.5 0.5 7.9 1.3 0 0-23 0-22.5 0l0.9-2.2c0.1-0.2 0.2-0.3 0.4-0.3L228.7 8.2z"/><path d="M132.7 88.8c-0.1 0.3 0 0.6 0.4 0.6h24.1c0.4 0 0.8-0.3 0.9-0.6l38.1-81.2c0.1-0.3 0-0.6-0.4-0.6h-29.6c-0.4 0-0.8 0.3-0.9 0.6l-5 10.2c-0.2 0.3 0 0.6 0.4 0.6L165 18.4c0.4 0 0.5 0.3 0.4 0.6L132.7 88.8z"/><path d="M187 88.8c-0.1 0.3 0 0.6 0.4 0.6h24.1c0.4 0 0.8-0.3 0.9-0.6l38.1-81.2c0.1-0.3 0-0.6-0.4-0.6h-24c-0.4 0-0.8 0.3-0.9 0.6l-5.1 10.4c-0.2 0.3-0.4 0.8-0.6 1.2L187 88.8z"/><path d="M241 88.8c-0.1 0.3 0 0.6 0.4 0.6h24.1c0.4 0 0.8-0.3 0.9-0.6L304.4 7.5c0.1-0.3 0-0.6-0.4-0.6h-24c-0.4 0-0.8 0.3-0.9 0.6l-5.1 10.4c-0.2 0.3-0.4 0.8-0.6 1.2L241 88.8z"/><path d="M148.5 35.7c0.1 0.3 0.2 0.9 0.1 1.2l-0.6 2.1c-0.1 0.3-0.3 0.4-0.4 0L133.8 9.2c-0.1-0.3-0.1-0.8 0.2-1l0.8-0.8c0.3-0.2 0.6-0.2 0.7 0.1L148.5 35.7z"/><path d="M73.5 88.8c-0.1 0.3 0 0.6 0.4 0.6h24.1c0.4 0 0.8-0.3 0.9-0.6L136.9 7.5c0.1-0.3 0-0.6-0.4-0.6h-24c-0.4 0-0.8 0.3-0.9 0.6l-5.1 10.4c-0.2 0.3-0.4 0.8-0.6 1.2L73.5 88.8z"/><path d="M30.6 51.5c0.2 0.3 0.2 0.8 0 1.2l-0.9 1.9c-0.1 0.3-0.4 0.3-0.5 0L6.9 7.6C6.8 7.3 6.9 7 7.3 7l1.6 0c0.4 0 0.8 0.3 0.9 0.6L30.6 51.5z"/><path d="M34 7.6c0.1-0.3 0-0.5-0.3-0.5H8c-0.3 0-0.6 0.1-0.6 0.2s0.1 0.4 0.2 0.7c0 0 3.3 7.3 3.6 7.3 0 0 6.1 11.1 4.9 11.1l8.4 0.2c0.3 0 0.7-0.2 0.8-0.5L34 7.6z"/><path d="M20.8 88.9c-0.1 0.3 0 0.6 0.4 0.6h24.1c0.4 0 0.8-0.3 0.9-0.6L84.2 7.6c0.1-0.3 0-0.6-0.4-0.6H59.9c-0.4 0-0.8 0.3-0.9 0.6L20.8 88.9z"/><path d="M212.9 89.3c-0.2 0-0.4 0-0.6 0 0 0-5.4-0.3-2-0.1 3 0.1-12.2-0.6-6.5-2.4 0 0 23.3 0 22.9 0l-0.9 2.1c-0.1 0.2-0.2 0.3-0.4 0.3L212.9 89.3z"/></svg>
